<svg id="Layer_1" data-name="Layer 1" xmlns="http://www.w3.org/2000/svg" viewBox="0 0 40 40"><defs><style>.cls-1{fill:#222;}.cls-2{fill:#fff;fill-rule:evenodd;}</style></defs><path class="cls-1" d="M32,12A20,20,0,1,1,12-8,20,20,0,0,1,32,12Z" transform="translate(8 8)"/><path class="cls-2" d="M12-4.36a16.36,16.36,0,0,0-6,31.6,15.47,15.47,0,0,1,0-4.7L8,14.41A5.9,5.9,0,0,1,7.52,12c0-2.28,1.32-4,3-4a2,2,0,0,1,2.07,2.3c0,1.41-.89,3.5-1.35,5.45a2.38,2.38,0,0,0,2.42,3c2.91,0,5.15-3.07,5.15-7.5a6.46,6.46,0,0,0-6.84-6.65,7.08,7.08,0,0,0-7.39,7.1A6.34,6.34,0,0,0,5.76,15.4a.5.5,0,0,1,.11.47c-.12.52-.4,1.63-.45,1.86s-.24.36-.55.22c-2-1-3.32-3.94-3.32-6.34C1.55,6.44,5.3,1.7,12.36,1.7c5.68,0,10.09,4.05,10.09,9.46,0,5.63-3.56,10.17-8.49,10.17a4.37,4.37,0,0,1-3.75-1.88l-1,3.89a17.92,17.92,0,0,1-2,4.29,16.23,16.23,0,0,0,4.85.73A16.36,16.36,0,0,0,12-4.36Z" transform="translate(8 8)"/></svg>