<svg width="24" height="24" viewBox="0 0 24 24" fill="none" xmlns="http://www.w3.org/2000/svg">
<path d="M17.859 3C20.0797 3 21.7154 4.91 21.9038 6.28C22.3499 9.49 21.5271 10.91 20.1392 12.94C18.662 15.11 13.7547 19.26 12.0099 20.71C10.2651 19.27 5.35782 15.12 3.88067 12.94C2.49275 10.9 1.66992 9.49 2.11603 6.28C2.30439 4.91 3.94016 3 6.16083 3C7.85607 3 9.6108 4.14 11.2168 6.3L12.0099 7.37L12.803 6.3C14.409 4.14 16.1538 3 17.859 3ZM17.859 2C16.0844 2 14.0323 2.98 12.0099 5.7C9.98752 2.98 7.93538 2 6.17074 2C3.44447 2 1.39233 4.31 1.13458 6.14C0.648804 9.62 1.52121 11.24 3.05784 13.51C4.96127 16.31 12 22 12 22C12 22 19.0486 16.31 20.9422 13.51C22.4788 11.25 23.3512 9.62 22.8654 6.14C22.6275 4.31 20.5754 2 17.859 2Z" fill="black"/>
</svg>
