<svg width="24" height="24" viewBox="0 0 24 24" fill="none" xmlns="http://www.w3.org/2000/svg">
<path fill-rule="evenodd" clip-rule="evenodd" d="M12.4922 3.02318C12.4297 2.86862 12.3459 2.69429 12.2463 2.53786C12.1538 2.39282 12.0043 2.19233 11.7913 2.08219C11.6718 2.02044 11.5098 1.97599 11.3273 2.01418C11.1462 2.05207 11.0116 2.15741 10.9184 2.26893C10.7485 2.47216 10.649 2.77521 10.5796 3.1234L10.5761 3.14101L10.574 3.15884C10.373 4.81419 9.89161 7.21409 9.06146 9.76752C7.16234 9.64027 5.08919 9.32831 2.85413 8.7671L2.85412 8.76709C2.52228 8.68378 2.20004 8.65274 1.91659 8.6913C1.6413 8.72875 1.33286 8.84394 1.14584 9.12073C0.94776 9.41388 0.973697 9.75436 1.09223 10.0441C1.20737 10.3256 1.42651 10.6125 1.7256 10.9012C2.62732 11.8621 4.36451 13.5055 6.67566 15.3453C5.3304 17.7603 3.61698 19.8828 1.48453 21.1865L1.99076 22C4.26354 20.6105 6.05443 18.4008 7.44201 15.946C9.63112 17.6353 12.2625 19.4414 15.1455 21.0098L15.1525 21.0136L15.1596 21.0172C15.3565 21.1161 15.5999 21.2092 15.8525 21.2559C16.097 21.3012 16.4056 21.3131 16.691 21.1849C17.0075 21.0426 17.2171 20.7639 17.2913 20.3925C17.3602 20.0479 17.3147 19.6264 17.1731 19.1275C16.5667 16.8946 15.6569 13.5903 14.7953 10.5518C18.8796 10.0079 21.694 8.64621 23.0001 7.59677L22.3928 6.85432C21.2256 7.79217 18.5306 9.11156 14.5309 9.62247C14.0697 8.00724 13.6328 6.50939 13.2773 5.3454C13.0979 4.75816 12.9385 4.25335 12.8066 3.86023C12.683 3.49219 12.5748 3.19469 12.4922 3.02318ZM13.5588 9.72783C13.1146 8.17423 12.6961 6.74107 12.3544 5.62234C12.1761 5.03872 12.0195 4.54322 11.8916 4.16191C11.7598 3.76928 11.6677 3.52663 11.6183 3.42739L11.6095 3.40973L11.6022 3.3914C11.583 3.34301 11.5615 3.29379 11.5387 3.24579C11.5355 3.26054 11.5323 3.27577 11.5291 3.29148C11.3266 4.94792 10.8574 7.30137 10.0572 9.81822C11.3073 9.86153 12.4757 9.82462 13.5588 9.72783ZM8.7437 10.7029C6.85469 10.5616 4.80864 10.2438 2.61733 9.69359C2.36537 9.63034 2.17297 9.62115 2.04772 9.63819C2.01566 9.64255 1.99163 9.64796 1.974 9.6531C1.97699 9.66218 1.98085 9.67276 1.98585 9.68496C2.03188 9.79749 2.15134 9.9793 2.40582 10.2236L2.41497 10.2324L2.42364 10.2417C3.27581 11.1511 4.92857 12.7177 7.13406 14.484C7.45907 13.845 7.75997 13.1906 8.03763 12.5299C8.29332 11.9215 8.52838 11.3099 8.7437 10.7029ZM7.90434 15.0912C8.27756 14.3702 8.61809 13.6344 8.92779 12.8974C9.22686 12.1858 9.49839 11.4702 9.74377 10.7621C11.2078 10.8258 12.5703 10.7832 13.8251 10.6628C14.6981 13.7381 15.627 17.1115 16.2426 19.3786L16.2426 19.3786L16.2441 19.3841C16.368 19.8195 16.3721 20.0736 16.3455 20.2067C16.3332 20.2681 16.3164 20.2935 16.311 20.3007C16.3067 20.3064 16.3028 20.3099 16.2929 20.3144C16.2623 20.3281 16.18 20.3442 16.0294 20.3164C15.8893 20.2905 15.7362 20.2346 15.6021 20.168C12.7129 18.5955 10.0795 16.7787 7.90434 15.0912ZM1.96438 9.60732C1.96454 9.6074 1.96467 9.60908 1.9643 9.6121C1.96403 9.60874 1.96422 9.60723 1.96438 9.60732Z" fill="black"/>
</svg>
