<svg width="34" height="20" viewBox="0 0 34 20" fill="none" xmlns="http://www.w3.org/2000/svg">
<g clip-path="url(#clip0_7893_195878)">
<rect x="0.459961" width="33.3333" height="20" rx="2" fill="#1D6A52"/>
<rect x="0.459961" width="33.3333" height="20" rx="2" fill="#18644D"/>
<path d="M20.1496 22.5172L16.5289 18.5862C14.391 21.6897 12.2531 23 9.35651 23C5.1841 23 2.45996 20.4828 2.45996 16.6897C2.45996 13.6207 4.11513 11.3793 7.94272 9.31034C5.49444 6.68966 4.73582 5.27586 4.73582 3.31034C4.73582 0.206896 7.01168 -2 10.1841 -2C13.4255 -2 15.7358 0.172414 15.7358 3.2069C15.7358 5.68965 14.2186 7.65517 10.7358 9.65517L16.322 15.6897L19.2531 10.7586L20.7703 11.6897L17.5289 17L21.46 21.2414L20.1496 22.5172ZM6.80479 3.34483C6.80479 5.03448 7.391 6.06896 9.59789 8.41379C12.4255 6.86207 13.7013 5.24138 13.7013 3.34483C13.7013 1.24138 12.2875 -0.24138 10.2531 -0.24138C8.25306 -0.24138 6.80479 1.24138 6.80479 3.34483ZM4.56341 16.5172C4.56341 19.2759 6.52893 21.2069 9.391 21.2069C11.6669 21.2069 13.5289 19.9655 15.322 17.2759L9.14962 10.5172C5.90824 12.3448 4.56341 14.1379 4.56341 16.5172Z" fill="#CEDB4C"/>
</g>
<defs>
<clipPath id="clip0_7893_195878">
<rect x="0.459961" width="33.3333" height="20" rx="2" fill="white"/>
</clipPath>
</defs>
</svg>
