<svg xmlns="http://www.w3.org/2000/svg" width="32" height="20" viewBox="0 0 32 20">
  <g fill="none" fill-rule="evenodd">
    <rect width="31.3" height="19.3" x=".35" y=".35" fill="#FFF" stroke="#000" stroke-width=".7" rx="2.1"/>
    <path fill="#000" fill-rule="nonzero" d="M4.31009408 1.24622356C4.57444453.906344411 4.76326628.453172205 4.70661976-1.09245946e-13 4.31009408.0188821752 3.8380397.264350453 3.55480707.585347432 3.30933879.86858006 3.08275269 1.34063444 3.13939922 1.77492447 3.59257142 1.831571 4.02686145 1.58610272 4.31009408 1.24622356M4.70661976 1.88821752C4.0646258 1.85045317 3.51704272 2.24697885 3.21492792 2.24697885 2.91281311 2.24697885 2.44075873 1.9070997 1.93094 1.9070997 1.27006387 1.92598187.665834261 2.2847432.325955107 2.88897281-.353803202 4.07854985.137133354 5.83459215.816891662 6.79758308 1.13788864 7.26963746 1.53441432 7.79833837 2.04423305 7.77945619 2.53516961 7.76057402 2.72399136 7.45845921 3.30933879 7.45845921 3.89468622 7.45845921 4.0646258 7.77945619 4.59332671 7.76057402 5.12202761 7.74169184 5.46190677 7.28851964 5.78290375 6.79758308 6.16054725 6.25 6.31160465 5.72129909 6.31160465 5.70241692 6.29272248 5.68353474 5.27308502 5.30589124 5.27308502 4.13519637 5.25420284 3.15332326 6.06613638 2.68126888 6.10390073 2.66238671 5.6696107 1.9826284 4.95208804 1.9070997 4.70661976 1.88821752M10.2579793.547583082C11.6552602.547583082 12.6182512 1.51057402 12.6182512 2.88897281 12.6182512 4.28625378 11.6363781 5.24924471 10.2202149 5.24924471L8.69075873 5.24924471 8.69075873 7.68504532 7.57671039 7.68504532 7.57671039.547583082 10.2579793.547583082zM8.69075873 4.32401813L9.95586447 4.32401813C10.9188554 4.32401813 11.4664385 3.79531722 11.4664385 2.90785498 11.4664385 2.00151057 10.9188554 1.49169184 9.95586447 1.49169184L8.67187656 1.49169184 8.67187656 4.32401813 8.69075873 4.32401813zM12.9014838 6.23111782C12.9014838 5.32477341 13.6001243 4.75830816 14.8463479 4.68277946L16.2813932 4.60725076 16.2813932 4.21072508C16.2813932 3.62537764 15.8848675 3.28549849 15.2428735 3.28549849 14.6197618 3.28549849 14.2421182 3.58761329 14.1477074 4.0407855L13.1280699 4.0407855C13.1847164 3.09667674 13.99665 2.39803625 15.2806379 2.39803625 16.5457436 2.39803625 17.3576772 3.05891239 17.3576772 4.1163142L17.3576772 7.70392749 16.3380397 7.70392749 16.3380397 6.85422961 16.3191575 6.85422961C16.0170427 7.43957704 15.3561666 7.79833837 14.6764083 7.79833837 13.6190065 7.79833837 12.9014838 7.15634441 12.9014838 6.23111782L12.9014838 6.23111782zM16.2813932 5.75906344L16.2813932 5.34365559 14.9974053 5.41918429C14.3554113 5.45694864 13.99665 5.74018127 13.99665 6.19335347 13.99665 6.64652568 14.3742935 6.94864048 14.9407587 6.94864048 15.6960457 6.94864048 16.2813932 6.43882175 16.2813932 5.75906344zM18.3017859 9.62990937L18.3017859 8.76132931C18.3773146 8.78021148 18.5661364 8.78021148 18.6416651 8.78021148 19.1326016 8.78021148 19.3969521 8.57250755 19.5668917 8.04380665 19.5668917 8.02492447 19.6613025 7.72280967 19.6613025 7.72280967L17.773085 2.51132931 18.9248977 2.51132931 20.24665 6.75981873 20.2655321 6.75981873 21.5872844 2.51132931 22.7202149 2.51132931 20.7753509 8.0060423C20.3221787 9.27114804 19.8123599 9.66767372 18.736076 9.66767372 18.6605473 9.64879154 18.3961968 9.64879154 18.3017859 9.62990937L18.3017859 9.62990937z" transform="translate(5 5.3)"/>
  </g>
</svg>
