<svg width="24" height="24" viewBox="0 0 24 24" fill="none" xmlns="http://www.w3.org/2000/svg">
<path d="M23 4.33325V18.9999H1V4.33325H23Z" fill="#3F51B5"/>
<path d="M1 14.4166H4.38158L1 16.41V18.9999H2.77444L9.25 15.1828V18.9999H14.75V14.711L21.8005 18.9999H23V16.0936L20.2431 14.4166H23V9.83325H18.4657L23 6.94549V4.33325H21.1252L14.75 8.39305V4.33325H9.25V7.90005L3.47028 4.33325H1V6.61531L6.2144 9.83325H1V14.4166Z" fill="white"/>
<path d="M1 4.69939L8.609 9.57135H6.691L1 5.9272V4.69939Z" fill="#E53935"/>
<path d="M13.9735 9.57135L22.1545 4.33325H23V5.01997L15.891 9.57135H13.9735Z" fill="#E53935"/>
<path d="M23 17.8973L16.541 13.7618H18.4585L23 16.6695V17.8973Z" fill="#E53935"/>
<path d="M1 18.2173L7.959 13.7618H9.8765L1.696 18.9999H1V18.2173Z" fill="#E53935"/>
<path d="M10.625 10.619H1V12.7142H10.625V18.9999H13.375V12.7142H23V10.619H13.375V4.33325H10.625V10.619Z" fill="#E53935"/>
</svg>
