<svg id="Layer_1" data-name="Layer 1" xmlns="http://www.w3.org/2000/svg" viewBox="0 0 40 40"><defs><style>.cls-1{fill:#fff;fill-rule:evenodd;}</style></defs><circle cx="20" cy="20" r="20"/><path class="cls-1" d="M9.37,15.35V8.09l6.88,3.64Zm15.1-8.52a5.64,5.64,0,0,0-1-2.56,3.62,3.62,0,0,0-2.55-1.1c-3.56-.26-8.9-.26-8.9-.26h0s-5.34,0-8.9.26A3.62,3.62,0,0,0,.54,4.27a5.64,5.64,0,0,0-1,2.56A38.87,38.87,0,0,0-.73,11v2a38.81,38.81,0,0,0,.26,4.18,5.71,5.71,0,0,0,1,2.57,4.28,4.28,0,0,0,2.81,1.1c2,.2,8.65.26,8.65.26s5.35,0,8.91-.27a3.6,3.6,0,0,0,2.55-1.09,5.71,5.71,0,0,0,1-2.57A38.81,38.81,0,0,0,24.73,13V11A38.87,38.87,0,0,0,24.47,6.83Z" transform="translate(8 8)"/></svg>